# This file uses centimeters as units for non-parametric coordinates.

mtllib HAL9000.mtl
g default
v -0.973032 0.000000 0.034756
v 0.973032 0.000000 0.034756
v -0.967692 5.574224 0.034756
v 0.967692 5.574224 0.034756
v -0.967692 5.574224 -0.207373
v 0.967692 5.574224 -0.207373
v -0.973032 0.000000 -0.207373
v 0.973032 0.000000 -0.207373
v 0.971937 1.134973 0.034756
v -0.971937 1.134973 0.034756
v -0.971937 1.134973 -0.207373
v 0.971937 1.134973 -0.207373
v 0.887707 1.176831 0.034756
v 0.887853 1.093115 0.034756
v 0.888639 0.071014 0.034756
v -0.858630 0.071014 0.034756
v -0.857856 1.093115 0.034756
v -0.857712 1.176831 0.034756
v -0.854242 5.495943 0.034756
v 0.884186 5.495943 0.034756
v -0.802169 0.140780 0.002987
v 0.835109 0.140780 0.002987
v 0.834389 1.030939 0.002987
v -0.801458 1.030939 0.002987
v 0.834502 5.426826 0.002987
v -0.801623 5.426826 0.002987
v -0.804818 1.244241 0.002987
v 0.837745 1.244241 0.002987
v 0.648007 2.807597 0.002987
v 0.249632 3.097033 0.002987
v -0.242786 3.097033 0.002987
v -0.641160 2.807597 0.002987
v -0.793325 2.339280 0.002987
v -0.641160 1.870963 0.002987
v -0.242785 1.581526 0.002987
v 0.249633 1.581526 0.002987
v 0.648007 1.870963 0.002987
v 0.800173 2.339280 0.002987
v 0.003424 2.339280 0.002987
v 0.574769 2.754386 0.121177
v 0.221658 3.010936 0.121177
v -0.214811 3.010936 0.121177
v -0.567922 2.754386 0.121177
v -0.702798 2.339280 0.121177
v -0.567922 1.924173 0.121177
v -0.214811 1.667623 0.121177
v 0.221658 1.667623 0.121177
v 0.574769 1.924173 0.121177
v 0.709645 2.339280 0.121177
v 0.544722 2.732556 0.169312
v 0.210181 2.975615 0.169312
v -0.203334 2.975615 0.169312
v -0.537875 2.732556 0.169312
v -0.665658 2.339280 0.169312
v -0.537875 1.946004 0.169312
v -0.203334 1.702945 0.169312
v 0.210181 1.702945 0.169312
v 0.544722 1.946004 0.169312
v 0.672505 2.339280 0.169312
v 0.428652 2.648226 0.207373
v 0.165846 2.839167 0.207373
v 0.003424 2.339280 0.207373
v -0.158999 2.839167 0.207373
v -0.421805 2.648226 0.207373
v -0.522188 2.339280 0.207373
v -0.421805 2.030334 0.207373
v -0.158999 1.839393 0.207373
v 0.165847 1.839393 0.207373
v 0.428652 2.030334 0.207373
v 0.529035 2.339280 0.207373
v 0.648007 2.807597 0.086742
v 0.618715 2.786315 0.121177
v 0.249632 3.097033 0.086742
v 0.238444 3.062598 0.121177
v -0.242786 3.097033 0.086742
v -0.231597 3.062598 0.121177
v -0.641160 2.807597 0.086742
v -0.611868 2.786315 0.121177
v -0.793325 2.339280 0.086742
v -0.757118 2.339280 0.121177
v -0.641160 1.870963 0.086742
v -0.611868 1.892245 0.121177
v -0.242785 1.581526 0.086742
v -0.231597 1.615961 0.121177
v 0.249633 1.581526 0.086742
v 0.238444 1.615961 0.121177
v 0.648007 1.870963 0.086742
v 0.618715 1.892245 0.121177
v 0.800173 2.339280 0.086742
v 0.763965 2.339280 0.121177
vt 0.618046 0.059048
vt 0.631753 0.047533
vt 0.632130 0.232586
vt 0.618476 0.225901
vt 0.631625 0.008293
vt 0.671362 0.232431
vt 0.986655 0.048144
vt 0.314112 0.048271
vt 0.314787 0.233662
vt 0.275552 0.233856
vt 0.618516 0.239444
vt 0.620851 0.940148
vt 0.634453 0.952775
vt 0.318299 0.954485
vt 0.987227 0.951778
vt 0.673684 0.952600
vt 0.333272 0.226832
vt 0.333314 0.240390
vt 0.332782 0.059729
vt 0.336663 0.941682
vt 0.342886 0.071849
vt 0.608431 0.071235
vt 0.608747 0.214883
vt 0.343361 0.215768
vt 0.611428 0.928279
vt 0.346376 0.929761
vt 0.343179 0.251967
vt 0.609167 0.251125
vt 0.154475 0.991314
vt 0.221598 0.953487
vt 0.156299 0.644794
vt 0.077987 0.982353
vt 0.021425 0.930035
vt 0.006470 0.854352
vt 0.038941 0.784227
vt 0.107579 0.746579
vt 0.180184 0.755083
vt 0.238260 0.807579
vt 0.253642 0.883312
vt 0.108760 0.430673
vt 0.178743 0.454485
vt 0.151381 0.491073
vt 0.107739 0.504589
vt 0.064487 0.489872
vt 0.038146 0.452543
vt 0.038777 0.406860
vt 0.066139 0.370273
vt 0.109781 0.356756
vt 0.153033 0.371473
vt 0.179374 0.408802
vt 0.202291 0.935728
vt 0.149293 0.965599
vt 0.163479 0.508137
vt 0.198561 0.461179
vt 0.088910 0.958504
vt 0.107496 0.525506
vt 0.044281 0.917161
vt 0.051996 0.506651
vt 0.032526 0.857372
vt 0.018178 0.458776
vt 0.058207 0.801981
vt 0.018959 0.400166
vt 0.111522 0.772148
vt 0.054041 0.353208
vt 0.170498 0.779078
vt 0.110023 0.335840
vt 0.215445 0.820458
vt 0.165524 0.354694
vt 0.227586 0.880293
vt 0.199342 0.402570
vt 0.213039 0.945677
vt 0.207870 0.940878
vt 0.235125 0.881180
vt 0.242128 0.882024
vt 0.152141 0.979965
vt 0.150780 0.973044
vt 0.082770 0.971800
vt 0.085737 0.965400
vt 0.031497 0.924308
vt 0.037659 0.920875
vt 0.017984 0.855640
vt 0.024987 0.856484
vt 0.047484 0.792035
vt 0.052643 0.796834
vt 0.109349 0.757861
vt 0.110383 0.764744
vt 0.175965 0.765703
vt 0.173325 0.772141
vt 0.228204 0.813308
vt 0.222052 0.816742
vt 0.318561 0.993726
vt 0.279060 0.954659
vt 0.986433 0.232120
vt 0.274847 0.048601
vt 0.314052 0.009031
vt 0.207595 0.399957
vt 0.206773 0.463917
vt 0.170665 0.347729
vt 0.110089 0.327183
vt 0.049006 0.346167
vt 0.010747 0.397428
vt 0.009925 0.461389
vt 0.046855 0.513616
vt 0.107431 0.534162
vt 0.168514 0.515178
vt 0.268257 0.657905
vt 0.254387 0.589847
vt 0.239761 0.721001
vt 0.057488 0.699655
vt 0.044340 0.631683
vt 0.073560 0.568671
vt 0.134202 0.534715
vt 0.203231 0.542799
vt 0.671064 0.047826
vt 0.634638 0.992013
vn 0.000000 0.000000 1.000000
vn 0.000000 0.000000 1.000000
vn 0.000000 0.000000 1.000000
vn 0.000000 0.000000 1.000000
vn 1.000000 0.000964 0.000000
vn 1.000000 0.000964 0.000000
vn 1.000000 0.000964 0.000000
vn 1.000000 0.000964 0.000000
vn -1.000000 0.000964 0.000000
vn -1.000000 0.000964 0.000000
vn -1.000000 0.000964 0.000000
vn -1.000000 0.000964 0.000000
vn 0.000000 0.000000 1.000000
vn 0.000000 0.000000 1.000000
vn 0.000000 0.000000 1.000000
vn 0.000000 0.000000 1.000000
vn 0.000000 0.000000 1.000000
vn 0.000000 0.000000 1.000000
vn 0.000000 0.000000 1.000000
vn -1.000000 0.000956 0.000000
vn -1.000000 0.000956 0.000000
vn -1.000000 0.000956 0.000000
vn -1.000000 0.000956 0.000000
vn 0.000000 0.000000 -1.000000
vn 0.000000 0.000000 -1.000000
vn 0.000000 0.000000 -1.000000
vn 0.000000 0.000000 -1.000000
vn 1.000000 0.000956 0.000000
vn 1.000000 0.000956 0.000000
vn 1.000000 0.000956 0.000000
vn 1.000000 0.000956 0.000000
vn 0.000000 0.000000 1.000000
vn 0.000000 0.000000 1.000000
vn 0.000000 0.000000 1.000000
vn 0.000000 0.000000 1.000000
vn 0.000000 0.000000 1.000000
vn 0.000000 0.000000 1.000000
vn 0.000000 0.000000 1.000000
vn 0.000000 0.000000 -1.000000
vn 0.000000 0.000000 -1.000000
vn 0.000000 0.000000 -1.000000
vn 0.000000 0.000000 -1.000000
vn 0.000000 0.000000 1.000000
vn 0.000000 0.000000 1.000000
vn 0.000000 0.000000 1.000000
vn 0.000000 0.000000 1.000000
vn 0.000000 0.000000 1.000000
vn 0.000000 0.000000 1.000000
vn 0.000000 0.000000 1.000000
vn 0.000000 0.000000 1.000000
vn 0.000000 0.000000 1.000000
vn 0.000000 0.000000 1.000000
vn 0.000000 0.000000 1.000000
vn 0.000000 0.000000 1.000000
vn 0.000000 0.000000 1.000000
vn 0.000000 0.000000 1.000000
vn 0.000000 0.000000 1.000000
vn 0.000000 0.000000 1.000000
vn 0.000000 1.000000 0.000000
vn 0.000000 1.000000 0.000000
vn 0.000000 1.000000 0.000000
vn 0.000000 1.000000 0.000000
vn 0.000000 -1.000000 0.000000
vn 0.000000 -1.000000 0.000000
vn 0.000000 -1.000000 0.000000
vn 0.000000 -1.000000 0.000000
vn 0.000000 0.000000 1.000000
vn 0.000000 0.000000 1.000000
vn 0.000000 0.000000 1.000000
vn 0.000000 0.000000 1.000000
vn 0.000000 0.000000 1.000000
vn 0.000000 0.000000 1.000000
vn 0.000000 0.000000 1.000000
vn 0.000000 0.000000 1.000000
vn 0.000000 0.414421 0.910086
vn 0.000000 0.414421 0.910085
vn 0.000000 0.414421 0.910086
vn 0.000000 0.414421 0.910086
vn -0.510619 -0.000402 0.859807
vn -0.510619 -0.000402 0.859807
vn -0.510619 -0.000402 0.859807
vn -0.510619 -0.000402 0.859807
vn 0.000000 -0.455000 0.890492
vn 0.000000 -0.455000 0.890492
vn 0.000000 -0.455000 0.890492
vn 0.000000 -0.455000 0.890492
vn 0.490599 -0.000381 0.871385
vn 0.490599 -0.000381 0.871385
vn 0.490599 -0.000381 0.871385
vn 0.490599 -0.000381 0.871385
vn 0.000000 -0.417632 0.908616
vn 0.000000 -0.417632 0.908616
vn 0.000000 -0.417632 0.908616
vn 0.000000 -0.417632 0.908616
vn 0.515860 -0.000404 0.856673
vn 0.515860 -0.000404 0.856673
vn 0.515860 -0.000404 0.856673
vn 0.515860 -0.000404 0.856673
vn 0.000000 0.426310 0.904577
vn 0.000000 0.426310 0.904577
vn 0.000000 0.426310 0.904577
vn 0.000000 0.426310 0.904577
vn -0.537635 -0.000428 0.843178
vn -0.537635 -0.000428 0.843178
vn -0.537635 -0.000428 0.843178
vn -0.537635 -0.000428 0.843178
vn 0.000000 0.000000 -1.000000
vn 0.000000 0.000000 -1.000000
vn 0.000000 0.000000 -1.000000
vn 0.000000 0.000000 -1.000000
vn 0.000000 0.000000 -1.000000
vn 0.000000 0.000000 -1.000000
vn 0.000000 0.000000 -1.000000
vn 0.000000 0.000000 -1.000000
vn -0.000000 0.000000 -1.000000
vn -0.000000 0.000000 -1.000000
vn -0.000000 0.000000 -1.000000
vn -0.000000 0.000000 -1.000000
vn 0.000000 0.000000 -1.000000
vn 0.000000 0.000000 -1.000000
vn 0.000000 0.000000 -1.000000
vn 0.000000 0.000000 -1.000000
vn 0.000000 0.000000 -1.000000
vn 0.000000 0.000000 -1.000000
vn 0.000000 0.000000 -1.000000
vn 0.000000 0.000000 -1.000000
vn 0.000000 0.000000 1.000000
vn 0.000000 0.000000 1.000000
vn 0.000000 0.000000 1.000000
vn 0.000000 0.000000 1.000000
vn 0.000000 0.000000 1.000000
vn 0.000000 0.000000 1.000000
vn 0.000000 0.000000 1.000000
vn 0.000000 0.000000 1.000000
vn 0.000000 0.000000 1.000000
vn 0.000000 0.000000 1.000000
vn 0.000000 0.000000 1.000000
vn 0.000000 0.000000 1.000000
vn 0.000000 0.000000 1.000000
vn 0.000000 0.000000 1.000000
vn 0.000000 0.000000 1.000000
vn 0.000000 0.000000 1.000000
vn 0.000000 0.000000 1.000000
vn 0.000000 0.000000 1.000000
vn 0.000000 0.000000 1.000000
vn 0.000000 0.000000 1.000000
vn 0.473883 0.652244 0.591619
vn 0.473883 0.652244 0.591619
vn 0.473883 0.652244 0.591620
vn 0.473883 0.652244 0.591619
vn 0.000000 0.806221 0.591615
vn 0.000000 0.806221 0.591615
vn 0.000000 0.806220 0.591615
vn 0.000000 0.806220 0.591615
vn -0.473884 0.652246 0.591616
vn -0.473884 0.652246 0.591616
vn -0.473884 0.652246 0.591616
vn -0.473884 0.652246 0.591616
vn -0.766760 0.249135 0.591617
vn -0.766760 0.249135 0.591617
vn -0.766760 0.249135 0.591617
vn -0.766760 0.249135 0.591617
vn -0.766761 -0.249136 0.591616
vn -0.766761 -0.249136 0.591616
vn -0.766761 -0.249136 0.591616
vn -0.766760 -0.249136 0.591616
vn -0.473884 -0.652244 0.591618
vn -0.473884 -0.652244 0.591618
vn -0.473884 -0.652244 0.591618
vn -0.473884 -0.652244 0.591618
vn 0.000000 -0.806221 0.591615
vn 0.000000 -0.806221 0.591615
vn 0.000000 -0.806221 0.591615
vn 0.000000 -0.806221 0.591615
vn 0.473885 -0.652244 0.591617
vn 0.473885 -0.652244 0.591617
vn 0.473885 -0.652244 0.591617
vn 0.473885 -0.652244 0.591617
vn 0.766760 -0.249136 0.591617
vn 0.766760 -0.249136 0.591617
vn 0.766760 -0.249136 0.591617
vn 0.766760 -0.249136 0.591617
vn 0.766761 0.249135 0.591616
vn 0.766761 0.249136 0.591616
vn 0.766761 0.249135 0.591616
vn 0.766761 0.249136 0.591616
vn 0.157931 0.217373 0.963227
vn 0.157931 0.217373 0.963227
vn 0.157931 0.217373 0.963227
vn 0.157931 0.217373 0.963227
vn 0.000000 0.268689 0.963227
vn 0.000000 0.268689 0.963227
vn 0.000000 0.268689 0.963227
vn 0.000000 0.268689 0.963227
vn -0.157931 0.217373 0.963227
vn -0.157931 0.217373 0.963227
vn -0.157931 0.217373 0.963227
vn -0.157931 0.217373 0.963227
vn -0.255537 0.083029 0.963227
vn -0.255537 0.083029 0.963227
vn -0.255537 0.083029 0.963227
vn -0.255537 0.083029 0.963227
vn -0.255537 -0.083029 0.963227
vn -0.255537 -0.083029 0.963227
vn -0.255537 -0.083029 0.963227
vn -0.255537 -0.083029 0.963227
vn -0.157931 -0.217372 0.963228
vn -0.157931 -0.217372 0.963228
vn -0.157931 -0.217372 0.963228
vn -0.157931 -0.217372 0.963228
vn 0.000000 -0.268687 0.963228
vn 0.000000 -0.268687 0.963228
vn 0.000000 -0.268687 0.963228
vn 0.000000 -0.268687 0.963228
vn 0.157931 -0.217372 0.963228
vn 0.157931 -0.217372 0.963228
vn 0.157931 -0.217372 0.963228
vn 0.157931 -0.217372 0.963228
vn 0.255537 -0.083029 0.963227
vn 0.255537 -0.083029 0.963227
vn 0.255537 -0.083029 0.963227
vn 0.255537 -0.083029 0.963227
vn 0.255537 0.083029 0.963227
vn 0.255537 0.083029 0.963227
vn 0.255537 0.083029 0.963227
vn 0.255537 0.083029 0.963227
vn 0.672498 0.218508 0.707107
vn 0.672498 0.218508 0.707107
vn 0.672498 0.218508 0.707107
vn 0.672498 0.218508 0.707107
vn 0.415629 0.572064 0.707103
vn 0.415629 0.572064 0.707103
vn 0.415629 0.572064 0.707103
vn 0.415629 0.572064 0.707103
vn 0.000000 0.707110 0.707103
vn 0.000000 0.707110 0.707103
vn 0.000000 0.707110 0.707103
vn 0.000000 0.707110 0.707103
vn -0.415630 0.572066 0.707101
vn -0.415630 0.572066 0.707101
vn -0.415630 0.572066 0.707101
vn -0.415630 0.572066 0.707101
vn -0.672498 0.218508 0.707107
vn -0.672498 0.218508 0.707107
vn -0.672498 0.218508 0.707107
vn -0.672498 0.218508 0.707107
vn -0.672498 -0.218508 0.707107
vn -0.672498 -0.218508 0.707107
vn -0.672498 -0.218508 0.707107
vn -0.672498 -0.218508 0.707107
vn -0.415626 -0.572060 0.707108
vn -0.415626 -0.572060 0.707108
vn -0.415626 -0.572060 0.707108
vn -0.415626 -0.572060 0.707108
vn 0.000000 -0.707105 0.707108
vn 0.000000 -0.707105 0.707108
vn 0.000000 -0.707105 0.707108
vn 0.000000 -0.707105 0.707108
vn 0.415626 -0.572060 0.707108
vn 0.415626 -0.572060 0.707108
vn 0.415626 -0.572060 0.707108
vn 0.415627 -0.572060 0.707108
vn 0.672498 -0.218508 0.707107
vn 0.672498 -0.218508 0.707107
vn 0.672498 -0.218508 0.707107
vn 0.672498 -0.218508 0.707107
vn 0.587785 0.809017 0.000000
vn 0.587785 0.809017 0.000000
vn 0.587785 0.809017 0.000000
vn 0.587785 0.809017 0.000000
vn 0.000000 1.000000 0.000000
vn 0.000000 1.000000 0.000000
vn 0.000000 1.000000 0.000000
vn 0.000000 1.000000 0.000000
vn -0.587785 0.809017 0.000000
vn -0.587785 0.809017 0.000000
vn -0.587785 0.809017 0.000000
vn -0.587785 0.809017 0.000000
vn -0.951057 0.309017 0.000000
vn -0.951057 0.309017 0.000000
vn -0.951057 0.309017 0.000000
vn -0.951057 0.309017 0.000000
vn -0.951056 -0.309017 0.000000
vn -0.951056 -0.309017 0.000000
vn -0.951056 -0.309017 0.000000
vn -0.951056 -0.309017 0.000000
vn -0.587786 -0.809017 0.000000
vn -0.587786 -0.809017 0.000000
vn -0.587786 -0.809017 0.000000
vn -0.587786 -0.809017 0.000000
vn 0.000000 -1.000000 0.000000
vn 0.000000 -1.000000 0.000000
vn 0.000000 -1.000000 0.000000
vn 0.000000 -1.000000 0.000000
vn 0.587786 -0.809017 0.000000
vn 0.587786 -0.809017 0.000000
vn 0.587786 -0.809017 0.000000
vn 0.587786 -0.809017 0.000000
vn 0.951057 -0.309017 0.000000
vn 0.951057 -0.309017 0.000000
vn 0.951057 -0.309017 0.000000
vn 0.951057 -0.309017 0.000000
vn 0.951057 0.309017 0.000000
vn 0.951057 0.309017 0.000000
vn 0.951057 0.309017 0.000000
vn 0.951057 0.309017 0.000000
vn 0.000000 0.000000 1.000000
vn 0.000000 0.000000 1.000000
vn 0.000000 0.000000 1.000000
vn 0.000000 0.000000 1.000000
vn 0.000000 0.000000 1.000000
vn 0.000000 0.000000 1.000000
vn 0.000000 0.000000 1.000000
vn 0.000000 0.000000 1.000000
vn -0.000000 0.000000 1.000000
vn -0.000000 0.000000 1.000000
vn -0.000000 0.000000 1.000000
vn -0.000000 0.000000 1.000000
vn -0.000000 0.000000 1.000000
vn -0.000000 0.000000 1.000000
vn -0.000000 0.000000 1.000000
vn -0.000000 0.000000 1.000000
vn 0.000000 0.000000 1.000000
vn 0.000000 0.000000 1.000000
vn 0.000000 0.000000 1.000000
vn 0.000000 0.000000 1.000000
vn 0.000000 0.000000 1.000000
vn 0.000000 0.000000 1.000000
vn 0.000000 0.000000 1.000000
vn 0.000000 0.000000 1.000000
vn 0.000000 0.000000 1.000000
vn 0.000000 0.000000 1.000000
vn 0.000000 0.000000 1.000000
vn 0.000000 0.000000 1.000000
vn 0.000000 0.000000 1.000000
vn 0.000000 0.000000 1.000000
vn 0.000000 0.000000 1.000000
vn 0.000000 0.000000 1.000000
vn -0.000000 0.000000 1.000000
vn -0.000000 0.000000 1.000000
vn -0.000000 0.000000 1.000000
vn -0.000000 0.000000 1.000000
vn 0.000000 0.000000 1.000000
vn 0.000000 0.000000 1.000000
vn 0.000000 0.000000 1.000000
vn 0.000000 0.000000 1.000000
s off
g HAL9000_mesh
usemtl HAL9000_mat
f 15/1/1 2/2/2 9/3/3 14/4/4
f 2/2/5 8/114/6 12/6/7 9/3/8
f 7/94/9 1/8/10 10/9/11 11/10/12
f 14/4/13 9/3/14 13/11/15
f 20/12/16 13/11/17 9/3/18 4/13/19
f 11/10/20 10/9/21 3/14/22 5/92/23
f 6/16/24 12/6/25 11/93/26 5/15/27
f 9/3/28 12/6/29 6/16/30 4/13/31
f 10/9/32 17/17/33 18/18/34
f 1/8/35 16/19/36 17/17/37 10/9/38
f 7/7/39 11/93/40 12/6/41 8/114/42
f 10/9/43 18/18/44 19/20/45 3/14/46
f 21/21/47 22/22/48 23/23/49 24/24/50
f 18/18/51 17/17/52 14/4/53 13/11/54
f 25/25/55 26/26/56 27/27/57 28/28/58
f 5/91/59 3/14/60 4/13/61 6/115/62
f 1/8/63 7/95/64 8/5/65 2/2/66
f 16/19/67 1/8/68 2/2/69 15/1/70
f 3/14/71 19/20/72 20/12/73 4/13/74
f 16/19/75 15/1/76 22/22/77 21/21/78
f 15/1/79 14/4/80 23/23/81 22/22/82
f 14/4/83 17/17/84 24/24/85 23/23/86
f 17/17/87 16/19/88 21/21/89 24/24/90
f 20/12/91 19/20/92 26/26/93 25/25/94
f 19/20/95 18/18/96 27/27/97 26/26/98
f 18/18/99 13/11/100 28/28/101 27/27/102
f 13/11/103 20/12/104 25/25/105 28/28/106
f 30/113/107 29/107/108 39/31/109 31/112/110
f 32/111/111 31/112/112 39/31/113 33/110/114
f 34/109/115 33/110/116 39/31/117 35/36/118
f 36/37/119 35/36/120 39/31/121 37/108/122
f 38/106/123 37/108/124 39/31/125 29/107/126
f 62/40/127 60/41/128 61/42/129 63/43/130
f 62/40/131 63/43/132 64/44/133 65/45/134
f 62/40/135 65/45/136 66/46/137 67/47/138
f 62/40/139 67/47/140 68/48/141 69/49/142
f 62/40/143 69/49/144 70/50/145 60/41/146
f 40/97/147 41/105/148 51/53/149 50/54/150
f 41/105/151 42/104/152 52/56/153 51/53/154
f 42/104/155 43/103/156 53/58/157 52/56/158
f 43/103/159 44/102/160 54/60/161 53/58/162
f 44/102/163 45/101/164 55/62/165 54/60/166
f 45/101/167 46/100/168 56/64/169 55/62/170
f 46/100/171 47/99/172 57/66/173 56/64/174
f 47/99/175 48/98/176 58/68/177 57/66/178
f 48/98/179 49/96/180 59/70/181 58/68/182
f 49/96/183 40/97/184 50/54/185 59/70/186
f 50/54/187 51/53/188 61/42/189 60/41/190
f 51/53/191 52/56/192 63/43/193 61/42/194
f 52/56/195 53/58/196 64/44/197 63/43/198
f 53/58/199 54/60/200 65/45/201 64/44/202
f 54/60/203 55/62/204 66/46/205 65/45/206
f 55/62/207 56/64/208 67/47/209 66/46/210
f 56/64/211 57/66/212 68/48/213 67/47/214
f 57/66/215 58/68/216 69/49/217 68/48/218
f 58/68/219 59/70/220 70/50/221 69/49/222
f 59/70/223 50/54/224 60/41/225 70/50/226
f 71/71/227 72/72/228 90/73/229 89/74/230
f 72/72/231 71/71/232 73/75/233 74/76/234
f 74/76/235 73/75/236 75/77/237 76/78/238
f 76/78/239 75/77/240 77/79/241 78/80/242
f 78/80/243 77/79/244 79/81/245 80/82/246
f 80/82/247 79/81/248 81/83/249 82/84/250
f 82/84/251 81/83/252 83/85/253 84/86/254
f 84/86/255 83/85/256 85/87/257 86/88/258
f 86/88/259 85/87/260 87/89/261 88/90/262
f 88/90/263 87/89/264 89/74/265 90/73/266
f 29/30/267 30/29/268 73/75/269 71/71/270
f 30/29/271 31/32/272 75/77/273 73/75/274
f 31/32/275 32/33/276 77/79/277 75/77/278
f 32/33/279 33/34/280 79/81/281 77/79/282
f 33/34/283 34/35/284 81/83/285 79/81/286
f 34/35/287 35/36/288 83/85/289 81/83/290
f 35/36/291 36/37/292 85/87/293 83/85/294
f 36/37/295 37/38/296 87/89/297 85/87/298
f 37/38/299 38/39/300 89/74/301 87/89/302
f 38/39/303 29/30/304 71/71/305 89/74/306
f 72/72/307 74/76/308 41/52/309 40/51/310
f 74/76/311 76/78/312 42/55/313 41/52/314
f 76/78/315 78/80/316 43/57/317 42/55/318
f 78/80/319 80/82/320 44/59/321 43/57/322
f 80/82/323 82/84/324 45/61/325 44/59/326
f 82/84/327 84/86/328 46/63/329 45/61/330
f 84/86/331 86/88/332 47/65/333 46/63/334
f 86/88/335 88/90/336 48/67/337 47/65/338
f 88/90/339 90/73/340 49/69/341 48/67/342
f 90/73/343 72/72/344 40/51/345 49/69/346
